<svg width="424" height="235" version="1.1" xmlns="http://www.w3.org/2000/svg" desc="Created with imagetracer.js version 1.2.6" ><path fill="rgb(0,0,0)" stroke="rgb(0,0,0)" stroke-width="1" opacity="0" d="M 0 0 L 424 0 L 424 235 L 0 235 L 0 0 Z M 102 56 L 89 59 L 78 65 L 65 79 Q 59 86 59 100 L 59 104 L 58 106 L 58 126 L 57 125 L 50 126 L 47 130 L 47 151 L 48 153 L 54 156 L 56 155 L 58 156 L 58 173 L 58 175 L 59 178 L 78 190 L 101 190 Q 102 188 108 189 L 110 189 L 111 190 L 130 190 L 132 190 L 151 179 L 152 178 L 152 155 L 155 156 L 160 155 L 163 151 L 163 130 L 161 126 Q 158 124 152 125 L 151 93 L 143 76 Q 135 64 122 59 L 110 56 L 102 56 Z M 232 90 L 225 97 L 220 113 Q 216 115 208 114 L 210 103 L 209 96 L 204 91 Q 196 91 192 95 Q 186 97 187 105 L 190 105 L 196 99 L 201 98 L 202 101 L 201 114 L 195 115 Q 192 116 193 120 L 199 121 L 196 133 L 196 138 Q 197 140 201 139 L 204 135 L 207 120 L 219 119 L 219 127 L 221 134 L 228 139 Q 235 140 238 137 L 240 135 L 244 139 L 251 138 L 254 135 L 258 139 L 264 138 L 270 132 Q 271 127 269 126 L 262 133 L 259 133 L 261 115 Q 256 116 255 113 L 248 114 Q 239 118 239 130 L 233 133 L 231 132 L 227 129 L 227 118 L 235 113 L 241 103 Q 242 96 240 93 Q 239 89 232 90 Z M 302 90 Q 300 93 294 91 L 284 95 Q 280 97 281 102 L 285 102 L 296 97 Q 306 95 311 99 Q 315 102 316 108 L 316 116 L 312 126 L 308 130 L 299 133 Q 293 134 292 132 L 293 131 L 293 124 L 295 114 L 298 106 L 296 102 L 292 103 L 289 106 L 284 133 L 285 138 L 290 139 L 306 138 L 314 134 Q 322 129 324 117 L 324 107 L 320 98 L 313 92 L 302 90 Z M 336 113 L 334 114 Q 328 117 327 125 L 328 134 L 335 139 L 343 138 L 348 133 L 348 131 Q 351 127 357 127 Q 359 126 358 122 L 351 123 L 348 118 Q 346 111 336 113 Z M 219 157 L 216 163 L 215 175 L 215 176 L 218 175 L 220 176 L 224 175 Q 228 173 227 166 Q 226 161 220 162 L 221 159 L 219 157 Z M 189 158 L 187 170 Q 185 176 189 176 L 191 172 Q 190 167 194 169 L 196 175 Q 195 177 199 176 L 197 169 L 200 167 L 201 162 L 198 158 L 189 158 Z M 208 162 L 203 164 L 201 170 L 202 174 L 206 176 L 211 175 L 214 170 L 212 163 L 208 162 Z M 235 162 L 232 163 L 228 169 L 229 174 L 233 176 L 238 175 L 240 172 L 240 166 L 235 162 Z " /><path fill="rgb(0,0,0)" stroke="rgb(0,0,0)" stroke-width="1" opacity="0" d="M 234.5 94 Q 237.8 95.8 236 102.5 L 230.5 110 L 228.5 111 L 228 107.5 Q 229.4 98.9 234.5 94 Z " /><path fill="rgb(0,0,0)" stroke="rgb(0,0,0)" stroke-width="1" opacity="0" d="M 252.5 118 Q 255.9 117.1 254 122.5 L 252 130.5 L 249.5 133 L 246 133 L 246 125.5 L 250.5 119 L 252.5 118 Z " /><path fill="rgb(0,0,0)" stroke="rgb(0,0,0)" stroke-width="1" opacity="0" d="M 337.5 119 L 340 120.5 Q 339.4 126.6 343 128.5 L 339.5 133 Q 335.8 133.8 335 131.5 L 334 124.5 L 337.5 119 Z " /><path fill="rgb(0,0,0)" stroke="rgb(0,0,0)" stroke-width="1" opacity="0" d="M 192 161 Q 195.8 160 197 162.5 L 195.5 166 L 192 166 L 192 161 Z " /><path fill="rgb(0,0,0)" stroke="rgb(0,0,0)" stroke-width="1" opacity="0" d="M 207.5 165 L 210 166.5 Q 211 172 207.5 173 L 205 171.5 Q 204 166 207.5 165 Z " /><path fill="rgb(0,0,0)" stroke="rgb(0,0,0)" stroke-width="1" opacity="0" d="M 221.5 165 Q 223.8 164.3 223 166.5 L 223 168.5 Q 223.8 172.3 221.5 173 L 218 171.5 L 219 167.5 L 221.5 165 Z " /><path fill="rgb(0,0,0)" stroke="rgb(0,0,0)" stroke-width="1" opacity="0" d="M 234.5 165 L 237 166.5 Q 238 172 234.5 173 L 232 173 L 232 167.5 L 234.5 165 Z " /><path fill="rgb(231,158,43)" stroke="rgb(231,158,43)" stroke-width="1" opacity="0.9803921568627451" d="M 113.5 65 L 119.5 66 L 131 73.5 L 132 75.5 L 131 77.5 Q 136.3 79.7 135 88.5 L 130.5 95 Q 126 99 116.5 98 Q 113 96 117.5 94 Q 125.2 94.7 128 90.5 L 129 86 Q 124.9 84.3 126 88.5 Q 123.4 91.9 116.5 91 L 112 87.5 Q 112.7 84.5 109 86 L 112.5 92 Q 114.8 91.3 114 93.5 Q 112.6 96.6 107.5 96 L 106 94.5 L 106 69.5 L 113.5 65 Z M 121 70 L 121 76 L 118 77 L 116 80 Q 114 83 108 81 L 110 84 L 115 84 L 122 79 Q 125 77 124 72 L 121 70 Z " /><path fill="rgb(231,158,43)" stroke="rgb(231,158,43)" stroke-width="1" opacity="0.9803921568627451" d="M 90.5 66 Q 99.9 64.1 103 68.5 L 102.5 81 L 100.5 81 Q 95.3 82.3 94 79.5 L 93 72.5 L 90.5 70 L 87 68.5 L 90.5 66 Z " /><path fill="rgb(231,158,43)" stroke="rgb(231,158,43)" stroke-width="1" opacity="0.9803921568627451" d="M 82.5 71 L 83 73.5 L 82 75.5 L 85.5 80 L 90.5 80 Q 92.4 85.1 100.5 84 L 103 82.5 L 104 87.5 L 103 89.5 L 103 91.5 Q 105.2 97.8 99.5 96 L 96 93.5 Q 95.3 91.3 97.5 92 Q 101 90.7 100 86 Q 97.3 84.9 98 87.5 Q 95.8 92.3 87.5 91 L 84 88.5 L 82.5 86 Q 79.9 85.2 81 88.5 L 83.5 92 Q 86.2 94.8 92.5 94 L 95 96.5 Q 93.3 99.8 86.5 98 Q 79.1 96.9 76 91.5 L 74 84.5 L 79 76.5 L 79 74.5 L 80.5 72 L 82.5 71 Z " /><path fill="rgb(231,158,43)" stroke="rgb(231,158,43)" stroke-width="1" opacity="0.9803921568627451" d="M 74.5 95 Q 80.7 100.3 91.5 101 L 100.5 98 Q 102.3 100.8 108.5 99 L 110.5 98 Q 114 101.5 121.5 101 L 135.5 95 L 145 101.5 L 64.5 102 L 64.5 101 L 74.5 95 Z " /><path fill="rgb(231,158,43)" stroke="rgb(231,158,43)" stroke-width="1" opacity="0.9803921568627451" d="M 61 104 L 63.5 105 L 149 105 L 149 176 L 61 176 L 61 104 Z M 85 113 L 78 115 Q 72 118 70 125 Q 69 134 72 138 L 81 144 Q 90 146 94 142 Q 100 138 101 130 Q 99 128 100 124 L 97 119 Q 93 113 85 113 Z M 124 113 L 116 116 Q 110 120 109 128 L 111 137 L 121 144 Q 129 145 134 142 L 140 134 Q 141 125 138 121 Q 134 113 124 113 Z M 105 136 L 98 150 L 111 150 L 112 149 L 106 138 Q 107 135 105 136 Z M 70 153 L 70 167 L 71 167 L 140 167 L 140 154 L 140 153 L 70 153 Z " /><path fill="rgb(231,158,43)" stroke="rgb(231,158,43)" stroke-width="1" opacity="0.9803921568627451" d="M 53.5 127 L 57 128 L 58 130.5 L 58 150.5 Q 57.3 153.8 52.5 153 L 50 150.5 L 50 129.5 L 53.5 127 Z " /><path fill="rgb(231,158,43)" stroke="rgb(231,158,43)" stroke-width="1" opacity="0.9803921568627451" d="M 155.5 127 L 160 129.5 L 160 150.5 L 157.5 153 Q 152.8 153.8 152 150.5 L 152 129.5 L 153.5 128 L 155.5 127 Z " /><path fill="rgb(231,158,43)" stroke="rgb(231,158,43)" stroke-width="1" opacity="0.9803921568627451" d="M 104 141 Q 106.7 139.9 106 142.5 L 108 147 L 102.5 147 L 102 145.5 L 104 141 Z " /><path fill="rgb(231,158,43)" stroke="rgb(231,158,43)" stroke-width="1" opacity="0.9803921568627451" d="M 218.5 157 L 221 158.5 L 220 162 Q 225.6 161 227 165.5 Q 227.7 172.7 223.5 175 L 219.5 176 L 217.5 175 L 215 176 L 216 162.5 L 218.5 157 Z M 222 165 L 219 168 L 218 172 L 222 173 Q 224 172 223 169 L 223 167 Q 224 164 222 165 Z " /><path fill="rgb(231,158,43)" stroke="rgb(231,158,43)" stroke-width="1" opacity="0.9803921568627451" d="M 189 158 L 197.5 158 L 201 161.5 L 200 167 L 197 168.5 L 199 176 Q 195.3 177.5 196 174.5 L 194 169 Q 189.9 167.3 191 171.5 L 188.5 176 Q 185.5 176.5 187 169.5 L 189 158 Z M 192 161 L 192 166 L 196 166 L 197 163 Q 196 160 192 161 Z " /><path fill="rgb(231,158,43)" stroke="rgb(231,158,43)" stroke-width="1" opacity="0.9803921568627451" d="M 207.5 162 L 212 163 L 214 169.5 L 210.5 175 L 205.5 176 L 202 173.5 L 201 169.5 L 203 164 L 207.5 162 Z M 208 165 Q 204 166 205 172 L 208 173 Q 211 172 210 167 L 208 165 Z " /><path fill="rgb(231,158,43)" stroke="rgb(231,158,43)" stroke-width="1" opacity="0.9803921568627451" d="M 234.5 162 L 240 165.5 L 240 171.5 L 238 175 L 232.5 176 L 229 173.5 L 228 168.5 L 231.5 163 L 234.5 162 Z M 235 165 L 232 168 L 232 173 L 235 173 Q 238 172 237 167 L 235 165 Z " /><path fill="rgb(231,158,43)" stroke="rgb(231,158,43)" stroke-width="1" opacity="0.9803921568627451" d="M 65.5 178 L 67.5 179 L 70.5 178 L 72.5 178 L 88.5 178 L 89.5 179 L 93.5 178 L 95.5 178 L 141.5 178 L 142.5 179 L 145 178 Q 146.1 180.7 143.5 180 L 133.5 187 L 76.5 187 L 65 180 L 65.5 178 Z " /><path fill="rgb(130,185,199)" stroke="rgb(130,185,199)" stroke-width="1" opacity="0.996078431372549" d="M 98.5 59 L 111.5 59 L 119.5 61 Q 131.5 65.5 139 74.5 Q 148 83.9 149 100 L 136 91.5 Q 139 89.5 138 83.5 L 131.5 70 L 120.5 64 L 110.5 63 L 104.5 66 Q 101 62 92.5 63 Q 82 66 76 73.5 Q 75.5 80 72 83.5 L 72 87.5 L 74 91.5 Q 69 97.6 61 100 Q 63.3 79.5 76.5 69 L 90.5 61 L 98.5 59 Z " /><path fill="rgb(130,185,199)" stroke="rgb(130,185,199)" stroke-width="1" opacity="0.996078431372549" d="M 85.5 69 Q 91.7 68.3 93 72.5 Q 93.6 77.9 92 80 Q 84.9 81.7 83 77.5 L 82 74.5 L 85.5 69 Z " /><path fill="rgb(130,185,199)" stroke="rgb(130,185,199)" stroke-width="1" opacity="0.996078431372549" d="M 80.5 116 Q 93.1 113.9 96 121.5 Q 99.2 124.8 98 132.5 L 92.5 140 Q 89.2 142.7 82.5 142 Q 76.8 140.8 74 136.5 Q 71.1 132.9 72 125.5 L 78.5 117 L 80.5 116 Z M 84 119 L 76 125 Q 75 131 77 135 L 80 137 L 86 139 L 91 137 L 95 130 L 94 125 Q 92 119 84 119 Z " /><path fill="rgb(130,185,199)" stroke="rgb(130,185,199)" stroke-width="1" opacity="0.996078431372549" d="M 120.5 116 Q 133.1 113.9 136 121.5 Q 138.7 124.8 138 131.5 L 133.5 139 Q 130.3 142.8 122.5 142 Q 116.8 140.8 114 136.5 Q 110.7 132.8 112 124.5 L 118.5 117 L 120.5 116 Z M 124 119 L 121 120 L 115 128 L 117 135 L 122 138 L 131 137 L 134 133 L 133 124 Q 131 119 124 119 Z " /><path fill="rgb(130,185,199)" stroke="rgb(130,185,199)" stroke-width="1" opacity="0.996078431372549" d="M 82.5 122 Q 89.8 120.8 91 125.5 L 92 130.5 L 88.5 135 L 83.5 136 L 79 132.5 L 78 126.5 L 82.5 122 Z " /><path fill="rgb(130,185,199)" stroke="rgb(130,185,199)" stroke-width="1" opacity="0.996078431372549" d="M 122.5 122 L 127.5 122 L 132 126.5 Q 132.9 133.4 128.5 135 L 123.5 136 L 119 132.5 L 118 126.5 L 120 123 L 122.5 122 Z " /><path fill="rgb(130,185,199)" stroke="rgb(130,185,199)" stroke-width="1" opacity="0.996078431372549" d="M 72 156 L 137.5 156 L 138 159 L 72.5 159 L 72 156 Z " /><path fill="rgb(130,185,199)" stroke="rgb(130,185,199)" stroke-width="1" opacity="0.996078431372549" d="M 72 161 L 136.5 161 L 138 162.5 L 136.5 165 L 73.5 165 L 72 163.5 L 72 161 Z " /><path fill="rgb(21,15,9)" stroke="rgb(21,15,9)" stroke-width="1" opacity="0.9686274509803922" d="M 101.5 56 L 109.5 56 L 121.5 59 Q 135 64.5 143 75.5 L 151 92.5 L 152 125 Q 158.2 124.1 161 126 L 163 129.5 L 163 150.5 L 159.5 155 L 154.5 156 L 152 155 L 152 177.5 L 150.5 179 L 131.5 190 L 129.5 190 L 110.5 190 L 109.5 189 L 107.5 189 Q 102 187.5 100.5 190 L 77.5 190 L 59 177.5 L 58 174.5 L 58 172.5 L 58 155.5 L 55.5 155 L 53.5 156 L 48 152.5 L 47 150.5 L 47 129.5 L 49.5 126 L 56.5 125 L 58 125.5 L 58 105.5 L 59 103.5 L 59 99.5 Q 59 86 65 78.5 L 77.5 65 L 88.5 59 L 101.5 56 Z M 99 59 L 91 61 L 77 69 Q 63 79 61 100 Q 69 98 74 92 L 72 88 L 72 84 Q 75 80 76 74 Q 82 66 93 63 Q 101 62 105 66 L 111 63 L 121 64 L 132 70 L 138 84 Q 139 90 136 92 L 149 100 Q 148 84 139 75 Q 132 65 120 61 L 112 59 L 99 59 Z M 114 65 L 106 70 L 106 95 L 108 96 Q 113 97 114 94 Q 115 91 113 92 L 109 86 Q 113 84 112 88 L 117 91 Q 123 92 126 89 Q 125 84 129 86 L 128 91 Q 125 95 118 94 Q 113 96 117 98 Q 126 99 131 95 L 135 89 Q 136 80 131 78 L 132 76 L 131 74 L 120 66 L 114 65 Z M 91 66 L 81 72 L 79 75 L 79 77 L 74 85 L 76 92 Q 79 97 87 98 Q 93 100 95 97 L 93 94 Q 86 95 84 92 L 81 89 Q 80 85 83 86 L 84 89 L 88 91 Q 96 92 98 88 Q 97 85 100 86 Q 101 91 98 92 Q 95 91 96 94 L 100 96 Q 105 98 103 92 L 103 90 L 104 88 L 103 83 L 101 84 Q 93 85 91 81 L 92 78 Q 95 77 94 80 Q 95 82 101 81 L 103 81 L 103 69 Q 100 64 91 66 Z M 75 95 L 65 101 L 65 102 L 145 102 L 136 95 L 122 101 Q 114 102 111 98 L 109 99 Q 102 101 101 98 L 92 101 Q 81 100 75 95 Z M 61 104 L 61 176 L 149 176 L 149 105 L 64 105 L 61 104 Z M 54 127 L 50 130 L 50 151 L 53 153 Q 57 154 58 151 L 58 131 L 57 128 L 54 127 Z M 156 127 L 154 128 L 152 130 L 152 151 Q 153 154 158 153 L 160 151 L 160 130 L 156 127 Z M 66 178 L 65 180 L 77 187 L 134 187 L 144 180 Q 146 181 145 178 L 143 179 L 142 178 L 96 178 L 94 178 L 90 179 L 89 178 L 73 178 L 71 178 L 68 179 L 66 178 Z " /><path fill="rgb(21,15,9)" stroke="rgb(21,15,9)" stroke-width="1" opacity="0.9686274509803922" d="M 121 70 L 124 71.5 Q 124.8 77.3 121.5 79 L 114.5 84 L 109.5 84 L 107.5 81 Q 114.3 82.8 116 79.5 L 117.5 77 L 121 75.5 L 121 70 Z " /><path fill="rgb(21,15,9)" stroke="rgb(21,15,9)" stroke-width="1" opacity="0.9686274509803922" d="M 231.5 90 Q 238.5 88.5 240 92.5 Q 242.3 95.7 241 102.5 L 234.5 113 L 227 117.5 L 227 128.5 L 230.5 132 L 232.5 133 L 239 130 Q 239.1 118.4 247.5 114 L 254.5 113 Q 256 116.3 261 115 L 259 133 L 261.5 133 L 268.5 126 Q 271 127 270 131.5 L 263.5 138 L 257.5 139 L 253.5 135 L 250.5 138 L 243.5 139 L 239.5 135 L 237.5 137 Q 234.9 140.4 227.5 139 L 221 133.5 L 219 126.5 L 219 119 L 207 120 L 204 134.5 L 200.5 139 Q 196.8 139.8 196 137.5 L 196 132.5 L 199 121 L 193 120 Q 192 116.2 194.5 115 L 201 114 L 202 100.5 L 201 98 L 195.5 99 L 189.5 105 L 187 105 Q 185.9 97.4 191.5 95 Q 195.5 91 203.5 91 L 209 95.5 L 210 102.5 L 208 114 Q 216.3 115.3 220 113 L 225 96.5 L 231.5 90 Z M 235 94 Q 229 99 228 108 L 229 111 L 231 110 L 236 103 Q 238 96 235 94 Z M 253 118 L 251 119 L 246 126 L 246 133 L 250 133 L 252 131 L 254 123 Q 256 117 253 118 Z " /><path fill="rgb(21,15,9)" stroke="rgb(21,15,9)" stroke-width="1" opacity="0.9686274509803922" d="M 301.5 90 L 312.5 92 L 320 97.5 L 324 106.5 L 324 116.5 Q 322 128.5 313.5 134 L 305.5 138 L 289.5 139 L 285 138 L 284 132.5 L 289 105.5 L 291.5 103 L 295.5 102 L 298 105.5 L 295 113.5 L 293 123.5 L 293 130.5 L 292 131.5 Q 293.3 134.3 298.5 133 L 307.5 130 L 312 125.5 L 316 115.5 L 316 107.5 Q 314.8 101.8 310.5 99 Q 305.8 95.2 295.5 97 L 284.5 102 L 281 102 Q 279.8 96.5 283.5 95 L 293.5 91 Q 299.8 92.8 301.5 90 Z " /><path fill="rgb(21,15,9)" stroke="rgb(21,15,9)" stroke-width="1" opacity="0.9686274509803922" d="M 84.5 113 Q 93.1 113.4 97 118.5 L 100 123.5 Q 98.8 128.3 101 129.5 Q 99.5 138 93.5 142 Q 89.5 145.5 80.5 144 L 72 137.5 Q 68.5 133.5 70 124.5 Q 71.6 117.6 77.5 115 L 84.5 113 Z M 81 116 L 79 117 L 72 126 Q 71 133 74 137 Q 77 141 83 142 Q 89 143 93 140 L 98 133 Q 99 125 96 122 Q 93 114 81 116 Z " /><path fill="rgb(21,15,9)" stroke="rgb(21,15,9)" stroke-width="1" opacity="0.9686274509803922" d="M 123.5 113 Q 134.3 113.3 138 120.5 Q 141.5 124.5 140 133.5 L 133.5 142 Q 129.1 145.1 120.5 144 L 111 136.5 L 109 127.5 Q 110.4 120 115.5 116 L 123.5 113 Z M 121 116 L 119 117 L 112 125 Q 111 133 114 137 Q 117 141 123 142 Q 130 143 134 139 L 138 132 Q 139 125 136 122 Q 133 114 121 116 Z " /><path fill="rgb(21,15,9)" stroke="rgb(21,15,9)" stroke-width="1" opacity="0.9686274509803922" d="M 335.5 113 Q 346 111 348 117.5 L 350.5 123 L 358 122 Q 359 125.8 356.5 127 Q 350.8 127.3 348 130.5 L 348 132.5 L 342.5 138 L 334.5 139 L 328 133.5 L 327 124.5 Q 328.1 117.1 333.5 114 L 335.5 113 Z M 338 119 L 334 125 L 335 132 Q 336 134 340 133 L 343 129 Q 339 127 340 121 L 338 119 Z " /><path fill="rgb(21,15,9)" stroke="rgb(21,15,9)" stroke-width="1" opacity="0.9686274509803922" d="M 83.5 119 Q 91.6 118.9 94 124.5 L 95 129.5 L 90.5 137 L 85.5 139 L 79.5 137 L 77 134.5 Q 74.7 131.3 76 124.5 L 83.5 119 Z M 83 122 L 78 127 L 79 133 L 84 136 L 89 135 L 92 131 L 91 126 Q 90 121 83 122 Z " /><path fill="rgb(21,15,9)" stroke="rgb(21,15,9)" stroke-width="1" opacity="0.9686274509803922" d="M 123.5 119 Q 130.8 118.8 133 123.5 L 134 132.5 L 130.5 137 L 121.5 138 L 117 134.5 L 115 127.5 L 120.5 120 L 123.5 119 Z M 123 122 L 120 123 L 118 127 L 119 133 L 124 136 L 129 135 Q 133 133 132 127 L 128 122 L 123 122 Z " /><path fill="rgb(21,15,9)" stroke="rgb(21,15,9)" stroke-width="1" opacity="0.9686274509803922" d="M 104.5 136 Q 106.8 135.3 106 137.5 L 112 148.5 L 110.5 150 L 98 150 L 104.5 136 Z M 104 141 L 102 146 L 103 147 L 108 147 L 106 143 Q 107 140 104 141 Z " /><path fill="rgb(21,15,9)" stroke="rgb(21,15,9)" stroke-width="1" opacity="0.9686274509803922" d="M 70 153 L 139.5 153 L 140 153.5 L 140 167 L 70.5 167 L 70 166.5 L 70 153 Z M 72 156 L 73 159 L 138 159 L 138 156 L 72 156 Z M 72 161 L 72 164 L 74 165 L 137 165 L 138 163 L 137 161 L 72 161 Z " /></svg>